<?xml version="1.0" encoding="utf-8"?>
<!-- Svg Vector Icons : http://www.onlinewebfonts.com/icon -->
<!DOCTYPE svg PUBLIC "-//W3C//DTD SVG 1.1//EN" "http://www.w3.org/Graphics/SVG/1.1/DTD/svg11.dtd">
<svg version="1.1" xmlns="http://www.w3.org/2000/svg" xmlns:xlink="http://www.w3.org/1999/xlink" x="0px" y="0px" viewBox="0 0 256 256" enable-background="new 0 0 256 256" xml:space="preserve">
<metadata> Svg Vector Icons : http://www.onlinewebfonts.com/icon </metadata>
<g><g><g><path fill="#000000" d="M133.1,30.1c-2.7,0.8-14.5,4.7-26.3,8.5C95,42.5,77.6,48.2,68.1,51.4c-18.3,6-30.7,10.5-38.6,13.9C18.4,70.2,13.6,75,11.3,83.7c-2,7.5-1.6,31.1,0.5,35.4c0.5,1,2.8,3.8,5,6.2c5.3,5.8,14.1,16.5,41.8,51C71.2,192,83.4,207,85.5,209.5c5.9,6.8,12.4,13.1,16.2,15.7c3.3,2.3,3.4,2.3,6.9,2.3c6.7,0,21.6-4.6,45.2-13.8c7-2.7,24.3-9.3,38.5-14.6c39.9-14.9,44-16.5,47.8-18.4c4.4-2.3,5.5-3.4,5.8-6c0.2-2,0.1-2.1-2.7-5.2c-2.4-2.5-7-6.6-14.8-13.1c-0.4-0.3,0.6-13.6,1-14.2c0.1-0.2,1.9-1.2,3.9-2.2c4.4-2.2,5.3-3.3,4.4-5.4c-2-4.8-13.9-18.5-39.6-45.3c-7.5-7.9-21.3-22.4-30.5-32.3c-22.4-23.9-26.8-28.4-28.5-28.4C138.5,28.6,135.8,29.3,133.1,30.1z M144.3,42.1c2.8,3.3,5.2,6.3,5.4,6.7c0.4,0.7,0,0.7-3.7,0c-2.3-0.4-4.3-0.6-4.5-0.4c-0.1,0.2-0.1,0.9,0.1,1.6c0.4,1.2,0.6,1.3,5.3,1.8c6.7,0.7,7.1,0.9,9.1,3.3l1.7,2.1l-1.8-0.3c-6.1-1-8.5-1.3-8.8-1.1c-0.1,0.2,0,0.9,0.4,1.6c0.6,1.4,0.4,1.3,10.7,3.4c2.4,0.5,3.1,0.9,5.9,3.6c1.7,1.7,3,3.1,3,3.2c-0.1,0.1-2.7-0.3-5.8-0.8c-3.1-0.5-5.8-0.9-6-0.8c-0.2,0.1-0.1,0.8,0.2,1.6c0.6,1.4,0.6,1.4,8.1,2.6l7.6,1.2l2.9,3.1c1.6,1.7,2.8,3.2,2.5,3.2c-0.2,0.1-3.4-0.4-7.1-1c-7.7-1.3-7.8-1.3-7.8-0.6c0,1.8,1.3,2.3,9,3.6c4.3,0.8,8.2,1.5,8.8,1.6c1,0.2,5.4,3.9,5.1,4.2c-0.1,0.1-3.5-0.5-7.7-1.2c-4.2-0.8-7.7-1.4-7.7-1.4c-0.4,0,0,1.2,0.6,2c0.5,0.6,2.9,1.3,9.3,2.7l8.7,1.8l3.9,4c2.1,2.2,3.7,4.1,3.4,4.2c-0.3,0.1-3.8-0.6-7.8-1.7c-7.9-1.9-8.3-1.9-7.1,0.8c0.5,1.1,1.1,1.4,5.7,2.5c2.9,0.7,7.5,1.9,10.4,2.7l5.2,1.4l4.4,4.8c2.4,2.6,4.3,4.9,4.2,5c-0.1,0.1-5.1-1.1-11.1-2.6c-6-1.5-11.1-2.8-11.4-2.8c-0.6,0-0.6,1.5,0,3c0.4,0.7,1.1,1.2,2,1.5c0.8,0.1,6.7,1.5,13.2,3l11.8,2.7l2.3,2.3c1.2,1.3,2.1,2.4,2,2.6c-0.1,0.1-4.5-0.7-9.6-1.9c-5.2-1.2-10.3-2.2-11.5-2.2c-2-0.1-2.1,0-2,1.1c0,0.6,0.4,1.4,0.7,1.7c0.4,0.2,6.5,1.8,13.7,3.4l13,3l2.7,2.5c3.6,3.3,4,4.1,2.4,4.7c-1,0.5-2.8,0-13.6-3.3c-6.8-2.1-12.7-3.7-13.1-3.6c-0.5,0.2-0.7,0.8-0.7,1.7c0,1.3,0.1,1.4,4.1,2.6c2.2,0.7,6.8,2.1,10.2,3.2l6.2,1.9l-4.5,1.5l-4.5,1.5l-4.7-1.7c-4.5-1.7-4.7-1.7-5.3-0.9c-1.2,1.6-0.8,2.8,1.2,3.7c2.2,1,2.3,1.4,0.4,1.8c-3,0.6-67.6,22.3-75,25.1c-20,7.6-29,13-33.5,20.2c-1.9,3-3.9,8.6-3.9,11.3c0,1.1-0.1,2.8-0.3,3.7l-0.3,1.8l-14.5-17.9c-19-23.4-44.2-54.2-50.2-61.4c-7.6-9.1-8.4-11.3-8.7-24.3c-0.3-9.9,0.2-12.9,2.7-17.9c1.9-3.9,8.2-10,12.9-12.7c5.4-3,9.3-4.5,36.8-13.5c14.1-4.6,35-11.5,46.3-15.2c11.4-3.8,21.3-6.8,21.9-6.7C139,36.1,140.6,37.7,144.3,42.1z M226,145.1c-0.1,1.2-0.6,7.1-1.1,13c-0.6,5.9-1.1,11.5-1.2,12.3c-0.3,1.4-0.4,1.5-17.2,8c-36.1,14-86.6,33.2-98.4,37.3l-4,1.4l-1.4-1.9c-2.4-3.3-3.5-7.4-3.5-12.9c0-4.2,0.1-5.2,1.1-7.1c3.3-6.6,15-14.5,31.4-21c5.9-2.4,92.1-31,94.4-31.4C226.1,142.9,226.1,143.9,226,145.1z M233.1,168.5c2.9,2.7,5.2,5.2,5.2,5.5c0,0.3-0.6,0.8-1.2,1.1c-0.7,0.3-10.6,4-22,8.4c-35.1,13.4-86.5,32.6-91.2,34c-2.4,0.8-6,1.7-7.8,2c-3.3,0.6-6.4,0.3-5.6-0.5c0.2-0.2,5.9-2.3,12.6-4.7c28.8-10,49.6-17.8,71.9-27c23.6-9.7,29.7-12.4,31.5-14c0.6-0.6,0.8-1.5,0.8-5.3c0-2.5,0.2-4.5,0.4-4.5C227.8,163.6,230.2,165.9,233.1,168.5z"/><path fill="#000000" d="M100.9,67c-4.1,1.4-8.2,2.9-8.9,3.2c-1.7,0.9-2.1,0,4.3,9.1c2.3,3.3,4.2,6.2,4.3,6.5c0.2,0.6-2.3,1.7-12.6,5.1c-2.9,1-5.3,1.9-5.4,2.1c-0.4,0.6,4.1,6.5,8,10.7l3.6,3.8l9.6-3.3c5.3-1.8,9.8-3.3,10-3.3c0.2,0,4.4,5.1,9.4,11.4c17.7,22.3,21.4,26.9,22.4,27.6c1.2,0.8,7.2,0.9,9.4,0.1c2.6-1,9.3-5,10.5-6.3l1.2-1.2l-3.2-4.7c-1.8-2.6-8.3-11.4-14.5-19.7c-6.2-8.3-11.3-15.2-11.2-15.2c0.1-0.1,3.2-1.1,7-2.3c7.5-2.4,10.8-3.6,10.8-4.2c0-1.2-7.8-12.5-10.2-14.7l-1.1-1.1l-3.5,1c-1.8,0.5-7.1,2.1-11.6,3.5c-6.5,2-8.4,2.4-8.9,2c-0.4-0.3-2.5-3.2-4.8-6.5c-3.9-5.5-4.3-5.9-5.7-5.9C109.1,64.5,105,65.7,100.9,67z M111.9,71.3c5.5,7.7,8,10.8,8.7,10.6c0.4-0.1,5.3-1.6,10.8-3.3c5.5-1.7,10.5-3,11.2-3c0.7,0,1.6,0.6,2.7,1.9c2.1,2.7,4.5,6.5,4.5,7.4c0,0.6-2.2,1.5-8.8,3.6c-4.8,1.5-8.8,2.9-8.8,3c0,0.4,0.9,1.6,15.9,21.9c10.7,14.7,13.6,19,13.1,19.3c-1.8,1.1-10.7,4.6-11.3,4.4c-0.6-0.2-3.5-3.6-23.4-27.7c-5.3-6.4-10.1-12.1-10.8-12.8l-1.3-1.2l-8.9,3.5c-4.9,1.9-9.2,3.4-9.5,3.2c-0.8-0.3-5.7-7.8-5.3-8.2c0.2-0.1,3.4-1.1,7.1-2.2c8.1-2.3,9.2-2.7,9.2-3.3c0-0.3-1.5-2.9-3.4-5.9c-6-9.6-6.1-9.8-4.6-10.5c1.2-0.6,9.9-3,10.7-3C110,69.1,111,70.1,111.9,71.3z"/><path fill="#000000" d="M25.2,82.4c-0.7,1-0.9,1.7-0.6,2c1.4,1.8,51.9,64.5,60.3,74.8c14.9,18.4,13.3,16.6,14.7,16c0.7-0.3,1.2-0.9,1.2-1.4S96,167,90.1,159.6c-7.9-9.8-53.5-66.1-62.9-77.5l-1-1.2L25.2,82.4z"/><path fill="#000000" d="M23.7,97.1c-1.2,2.1-1.7,14.7-0.6,15.8c0.3,0.2,0.8,0.5,1.3,0.6c0.8,0.1,0.9-0.3,1-5.9c0.1-3.3,0.3-7.1,0.3-8.3c0.1-2,0-2.3-0.9-2.4C24.4,96.8,23.8,96.9,23.7,97.1z"/><path fill="#000000" d="M211.2,152.9c-5,1.5-37.4,12.3-38.5,12.9c-1.9,1-2.5,3.4-0.9,3.4c0.8,0,11-3.3,35.6-11.3l7.7-2.6v-1.6C215.2,151.9,214.8,151.8,211.2,152.9z"/><path fill="#000000" d="M202.7,169c-24.3,8.4-38.9,13.7-43.9,15.9c-2.5,1.1-3.2,1.7-3.6,2.8c-0.3,0.9-0.3,1.6,0,1.8c0.3,0.3,4.3-0.9,11.2-3.3c15-5.3,38.2-13.8,39.7-14.6c1.4-0.7,1.6-1.6,0.5-2.7C205.7,168.1,205.4,168.1,202.7,169z"/><path fill="#000000" d="M156.1,176.5c-9.6,3.4-38.9,14.8-44.8,17.4c-2.5,1.1-3.4,2.2-2.8,3.6c0.1,0.4,0.5,0.6,0.8,0.6c0.3,0,3.6-1.2,7.4-2.8c3.8-1.5,7-2.8,7.1-2.8c0.2,0,0.5,2.4,0.6,5.4c0.3,5.8,0.8,8.7,1.7,9.5c0.4,0.4,1.7-0.7,5.1-4.3l4.6-4.8l5.3,0.8c2.9,0.5,5.5,0.7,5.9,0.5c0.6-0.4,0.4-7.6-0.3-13.7l-0.3-2.4l10-3.4c10.3-3.5,10.5-3.6,9.7-5.8C165.5,173.4,164.3,173.6,156.1,176.5z M143,187.5c0.4,2.6,0.3,8.4-0.1,8.4c-0.2,0-1.9-0.3-3.7-0.7s-3.7-0.6-4.3-0.5c-0.6,0.1-2.2,1.6-3.6,3.3l-2.5,3l-0.4-2.2c-0.2-1.2-0.3-3.5-0.2-5.1l0.1-3l6.5-2.4c3.5-1.4,6.8-2.5,7.2-2.5C142.4,185.8,142.7,186.3,143,187.5z"/></g></g></g>
</svg>